<svg xmlns="http://www.w3.org/2000/svg" viewBox="0 0 119 19"><path fill="#BDBDBD" fill-rule="evenodd" d="M6.6 14.9C4.1 14.9.4 12.6.4 7.6c0-1.3.2-3.4 1.8-5.2C3.9.5 5.9.2 7.8.2c.5 0 .8 0 1.2.1.8.1 1.3.3 1.3.7 0 .1 0 .2-.1.4l-1 3.3h-.5C8 2.1 7.5 1.6 6.3 1.6 4.3 1.6 3 4 3 6.4c0 3.7 2.3 5.8 5.2 5.8 1.1 0 1.7-.1 2.6-.5l.3.5-3.8 2.5c-.3.2-.5.2-.7.2zm11.6-6.7c-.4-1.2-.8-1.5-1.5-1.5s-1.1.6-1.2 1.1c0 .2-.1.9-.1 1.3v2.4c0 2.5.4 2.6 2.1 2.8v.5h-3.9c-.3 0-.8-.1-.8-.7 0-.9.3-4.3.3-5.5 0-3.2-.2-3.4-1.8-3.6v-.6h3.5c.5 0 .7.3.7.9v1.4l1.1-2c.2-.3.3-.4.6-.4.4 0 1.1.1 1.9.6.5.3.7.5.7.8 0 .3-.2.8-.4 1l-.8 1.5h-.4zM28.9 6c0-.7-.7-.8-1.6-1.1v-.5h2.5c.6 0 1.2 0 1.2.7 0 .2-.1.6-.3 1.2-.4 1.4-2.2 5.3-3.6 8.7-.2.5-.4 1.2-.4 1.6 0 .7.5.8 1.8 1.2v.5h-3.8c-.5 0-.8-.1-.8-.6 0-.1 0-.4.2-.6l1.6-3.3c-.5-1.1-2.7-6.1-3.3-7.3-.5-1.1-1-1.4-1.8-1.5v-.5h2.6c.8 0 1.2 0 1.4.5l2.4 6.2c.6-1.4 1.9-4.1 1.9-5.2zM34 18.3c-.4 0-.9 0-.9-.9 0-.7.3-3.8.3-5.5V8.6c0-3.2-.2-3.4-1.8-3.6v-.6h3.5c.5 0 .7.3.7.6s.1.6 0 1.6l1.1-1.8c.2-.3.3-.5 1.1-.5s1.9.2 2.7.9c1.6 1.4 1.6 3.2 1.6 3.9 0 2.9-1.7 5.9-5.1 5.9-.6 0-1.1-.1-1.6-.2 0 2.6.5 2.9 2 3.1v.4H34zm1.9-10.9c-.1.6-.1 3.4-.1 3.8 0 1.2 0 2.4 1.7 2.4 1.4 0 2.5-1.5 2.5-3.8 0-2.5-1.3-3.2-2.3-3.2-.8 0-1.4.5-1.8.8zm11.3-1.7c-.1 2.7 0 5 .1 5.6.1.7.6 1.6 1.9 1.6.3 0 .5 0 .8-.1l.2.4-2.6 1.5c-.2.1-.3.2-.6.2s-2.3-.4-2.3-3.2c0-1.6.1-3.3.1-6-.6 0-.8.1-1.4.1v-.6c.9-.4 1.3-.6 1.4-2 .1-1.2.1-1.3.1-1.4.1-.2.2-.4.4-.5l1.3-.7c.1-.1.3-.1.5-.1.4 0 .4.2.4.5 0 .4 0 .5-.1 1.4 0 .7-.1.8-.1 1.9h2.6l-.7 1.4h-2zm13.3 4c0 2.6-1.6 4-2.3 4.4-1.2.7-2.2.7-3 .7-3.3 0-4.6-3.3-4.6-5.4 0-3 2-5.3 4.9-5.3 3 0 5 2.5 5 5.6zM56 13.6c.6 0 1.2-.3 1.5-.8.2-.3.4-.8.4-1.9 0-.9-.5-5.4-2.7-5.4-1.5 0-2 1.4-2 2.7 0 1.9.7 5.4 2.8 5.4zM60.5.5h4.1l1.2 1.6c.6.9 3.2 4.3 5.4 6.8V3.7c0-1.9-.2-2.3-2.1-2.6V.5h3.7c.7 0 .6.5.6 1.1v13.3h-1c-.6-.8-3.1-3.9-3.6-4.6-2.2-2.8-2.5-3.3-4.2-5.2 0 1.6-.1 2-.1 5.2 0 3.5.3 3.8 2.2 4.1v.6H63c-.3 0-1 0-1-.8 0-.7.3-5.3.3-10.3 0-2.1-.2-2.3-1.8-2.7V.5zm19.4 14.4c-1.7 0-3.5-1-4.3-2.4-.7-1.3-.8-2.2-.8-2.9 0-3.1 1.9-5.4 4.6-5.4 3 0 4.3 2.6 4.3 4.6 0 .4 0 .9-.9.9-.4 0-2-.1-2.3-.1-.7 0-1.5 0-2.2.1-.3 0-.7 0-.7.6s1 2.4 3 2.4c.8 0 1.7 0 3-.7l.3.4-2.2 2.1c-.2.2-.9.4-1.8.4zM78.1 8c1 0 1.3.1 1.7.1.3 0 .6 0 1.6-.1-.1-.9-.1-1.3-.4-1.9-.3-.5-.7-.8-1.4-.8-2 0-2.3 2.3-2.3 3-.1.7-.1.9.1.9.1 0 .3 0 .7-1.2zm17 3c.8-1.8 1.2-3.1 1.3-3.3.2-.5.4-1.4.4-1.7 0-.7-.6-1-1.8-1.2v-.5h2.4c.6 0 1.2 0 1.2.6 0 1.4-1.6 5.3-3.7 9.9H94L91.7 9l-2.5 5.8h-.9c-1.9-5.4-2.7-7.1-3.5-8.9-.3-.6-.8-1-1.6-1.2v-.5h2.9c.5 0 1 0 1.2.7l2.1 5.8 2.4-6.5h.8l2.5 6.8zm10.1-3.7c-.4-1.5-1.3-2-2.4-2-1.2 0-1.6 1-1.6 1.4 0 .7.7 1.2 1.6 1.3 2.1.4 2.4.5 2.8.7 1.1.6 1.4 1.6 1.4 2.5 0 .7-.2 2.5-2.2 3.3-.5.2-1.1.3-2.2.3s-1.6-.1-2.1-.3c-.3-.1-1.4-.5-1.4-1 0-.2.1-.4.2-.6l.6-1.7h.5c.4 1 .9 2.4 2.7 2.4.7 0 1.9-.4 1.9-1.7 0-1-.8-1.2-1.6-1.4-.8-.2-1.4-.3-1.8-.4-1.4-.4-2.3-1.3-2.3-2.5 0-1.7 1.2-3.4 3.8-3.4 2.1 0 3.3.6 3.3 1.2 0 .1-.1.4-.2.6l-.6 1.3h-.4zm11.9 7.6h-9.8V14c2.1-3.3 6.8-10.9 7.2-11.8-.6 0-1.2-.1-1.8-.1-2.3 0-3.1.2-4.2 2.5h-.7l.7-3.5c.1-.5.3-.6.8-.6h8.9v.9c-1.6 2-6.7 11.2-7.1 11.8.3 0 .6.1 1.7.1 4.1 0 4.5-.5 5.5-3.1h.6l-.6 4c-.1.7-.8.7-1.2.7z"/></svg>