<?xml version="1.0" encoding="utf-8"?>
<!-- Generator: Adobe Illustrator 24.3.0, SVG Export Plug-In . SVG Version: 6.00 Build 0)  -->
<svg version="1.1" id="Layer_1" xmlns="http://www.w3.org/2000/svg" xmlns:xlink="http://www.w3.org/1999/xlink" x="0px" y="0px"
	 viewBox="0 0 120 120" style="enable-background:new 0 0 120 120;" xml:space="preserve">
<style type="text/css">
	
		.st0{opacity:0.5;fill:#62A388;stroke:#62A388;stroke-width:3;stroke-linecap:round;stroke-linejoin:round;stroke-miterlimit:10;enable-background:new    ;}
	.st1{fill:#62A388;stroke:#62A388;stroke-width:3;stroke-linecap:round;stroke-linejoin:round;stroke-miterlimit:10;}
	.st2{opacity:0.6;fill:none;stroke:#62A388;stroke-width:3;stroke-linecap:round;stroke-linejoin:round;stroke-miterlimit:10;}
	.st3{fill:none;stroke:#BDC5D1;stroke-width:3;stroke-linecap:round;stroke-linejoin:round;stroke-miterlimit:10;}
	.st4{fill:none;stroke:#62A388;stroke-width:3;stroke-linecap:round;stroke-linejoin:round;stroke-miterlimit:10;}
	.st5{fill:none;stroke:#FFFFFF;stroke-width:3;stroke-linecap:round;stroke-linejoin:round;stroke-miterlimit:10;}
	.st6{fill:#FFFFFF;stroke:#62A388;stroke-width:3;stroke-linecap:round;stroke-linejoin:round;stroke-miterlimit:10;}
</style>
<g>
	<polygon class="st0" points="93.6,40.8 93.6,79.6 93.6,80.5 93.6,88.7 100.6,94 107.5,88.7 107.5,80.5 107.5,79.6 107.5,40.8 	"/>
	<polygon class="st1" points="86.7,39 86.7,77.9 86.7,78.7 86.7,87 93.6,92.3 100.6,87 100.6,78.7 100.6,77.9 100.6,39 	"/>
</g>
<g>
	<polygon class="st0" points="26.6,40.8 26.6,79.6 26.6,80.5 26.6,88.7 33.5,94 40.4,88.7 40.4,80.5 40.4,79.6 40.4,40.8 	"/>
	<polygon class="st1" points="19.7,39 19.7,77.9 19.7,78.7 19.7,87 26.6,92.3 33.5,87 33.5,78.7 33.5,77.9 33.5,39 	"/>
</g>
<rect x="1.9" y="39" class="st2" width="116.2" height="79.4"/>
<line class="st3" x1="1.9" y1="71.4" x2="16.9" y2="71.4"/>
<line class="st3" x1="118.1" y1="71.4" x2="103.6" y2="71.4"/>
<line class="st3" x1="83.7" y1="71.4" x2="70.2" y2="71.4"/>
<line class="st3" x1="50.3" y1="71.4" x2="36.8" y2="71.4"/>
<line class="st2" x1="118.1" y1="110.9" x2="1.9" y2="110.9"/>
<rect x="50.3" y="66.8" class="st4" width="19.9" height="9.4"/>
<polyline class="st2" points="73.1,28.9 77.2,28.9 77.2,39 "/>
<polyline class="st2" points="42.8,39 42.8,28.9 47.1,28.9 "/>
<path class="st2" d="M46,24.9L46,24.9c-2.3,0-4.2-1.9-4.2-4.2v-4.3c0-4.6,1.8-6.8,3.8-7.8c2.6-1.2,4.4-7,4.4-7h20.2l2.1,7.1
	c0.6,1.9,0.9,4,0.9,6v15c0,2.2-2.1,3.8-4.4,3.1c-1.3-0.5-2.1-1.7-2.1-3.1v-0.1c0,1.8-1.5,3.2-3.2,3.2c-1.8,0-3.2-1.4-3.2-3.2v0.1
	c0,2.2-2.1,3.8-4.4,3.1c-1.3-0.5-2.1-1.7-2.1-3.1v-0.1c0,2-1.9,3.5-3.9,3.1c-1.5-0.3-2.6-1.8-2.6-3.3v-11"/>
<line class="st5" x1="66.6" y1="26.5" x2="66.6" y2="29.5"/>
<line class="st5" x1="60.1" y1="26.5" x2="60.1" y2="29.5"/>
<rect x="16.9" y="65.1" class="st6" width="19.9" height="12.7"/>
<rect x="83.7" y="65.1" class="st6" width="19.9" height="12.7"/>
<line class="st4" x1="93.6" y1="72.5" x2="93.6" y2="70.5"/>
<line class="st4" x1="26.9" y1="72.5" x2="26.9" y2="70.5"/>
<line class="st5" x1="53.6" y1="26.5" x2="53.6" y2="29.5"/>
</svg>
