<?xml version="1.0" encoding="utf-8"?>
<!-- Generator: Adobe Illustrator 24.3.0, SVG Export Plug-In . SVG Version: 6.00 Build 0)  -->
<svg version="1.1" id="Layer_1" xmlns="http://www.w3.org/2000/svg" xmlns:xlink="http://www.w3.org/1999/xlink" x="0px" y="0px"
	 viewBox="0 0 40 40" style="enable-background:new 0 0 40 40;" xml:space="preserve">
<style type="text/css">
	.st0{fill:#343434;}
</style>
<path class="st0" d="M15,6.5c-5,2-9,7-9,11.5c0,1,0,2,0.5,2.5c1-1,2.5-1.5,4.5-1.5c4,0,7.5,3,7.5,7.5S15,34,11,34
	c-4,0.5-6-1-7.5-3.5s-2-6-2-8C1.5,14.5,5.5,8,14,4L15,6.5z M35.5,6.5c-5,2-9,7-9,11.5c0,1,0,2,0.5,2.5c1-1,2.5-1.5,4.5-1.5
	c4,0,7.5,3,7.5,7.5S35.5,34,31.5,34c-3.5,0-5.5-1.5-7-4C22,28,22,24.5,22,22.5C22,14.5,26,8,34.5,4L35.5,6.5z"/>
</svg>
